<?xml version="1.0" standalone="no"?>
<!DOCTYPE svg PUBLIC "-//W3C//DTD SVG 20010904//EN"
 "http://www.w3.org/TR/2001/REC-SVG-20010904/DTD/svg10.dtd">
<svg version="1.0" xmlns="http://www.w3.org/2000/svg"
 width="520.000000pt" height="520.000000pt" viewBox="0 0 520.000000 520.000000"
 preserveAspectRatio="xMidYMid meet">
<metadata>
Created by potrace 1.11, written by Peter Selinger 2001-2013
</metadata>
<g transform="translate(0.000000,520.000000) scale(0.100000,-0.100000)"
fill="#000000" stroke="none">
<path d="M2162 4011 c-166 -8 -168 -10 -171 -181 -1 -47 -6 -123 -12 -170 -5
-48 -9 -253 -9 -470 2 -330 2 -756 0 -1003 0 -49 -3 -68 -12 -65 -14 5 -21 28
-49 168 -11 58 -35 148 -54 200 -18 52 -49 153 -70 224 -21 72 -57 167 -81
213 -24 46 -44 93 -44 105 0 11 -13 62 -29 112 -16 50 -32 116 -36 146 -4 30
-17 89 -30 130 -13 41 -42 134 -64 205 -23 72 -44 146 -47 165 -3 19 -20 65
-36 101 -29 65 -30 66 -81 78 -68 14 -421 26 -521 16 -95 -9 -126 -31 -126
-91 0 -21 -8 -64 -17 -97 -15 -54 -15 -83 -5 -301 15 -296 15 -592 1 -791 -10
-139 -11 -408 -6 -1305 2 -312 4 -349 21 -382 10 -21 25 -39 34 -42 104 -28
176 -37 223 -27 27 6 69 11 92 11 59 0 110 16 124 39 48 76 46 576 -3 830 -9
48 -14 144 -14 280 0 293 20 980 29 1016 l9 30 15 -35 c8 -19 20 -66 26 -105
7 -38 32 -122 56 -185 24 -63 56 -164 70 -224 14 -59 35 -121 46 -138 12 -16
35 -75 51 -130 16 -56 42 -132 58 -171 17 -38 30 -79 30 -91 0 -21 102 -324
134 -399 9 -21 26 -77 37 -125 31 -131 73 -260 106 -327 17 -33 38 -96 48
-140 9 -44 19 -87 21 -96 7 -24 133 -32 335 -20 172 9 217 21 235 58 5 10 10
473 11 1028 3 1061 4 1175 17 1610 6 182 5 279 -2 296 -18 45 -108 59 -310 50z
m-1232 -332 c0 -6 11 -20 25 -31 30 -23 33 -48 5 -48 -13 0 -20 -7 -20 -20 0
-13 -9 -22 -25 -26 -56 -14 -74 52 -29 105 26 32 44 40 44 20z m1340 -64 c0
-38 -2 -40 -31 -25 -22 12 -25 30 -7 48 23 23 38 13 38 -23z m-21 -74 c7 -5
10 -14 6 -20 -5 -9 -10 -9 -21 0 -26 22 -14 38 15 20z m-1215 -22 l27 -21 -20
-22 c-12 -12 -21 -28 -21 -35 0 -8 -13 -11 -37 -9 -45 4 -56 30 -24 59 12 11
21 26 21 34 0 21 23 18 54 -6z m1194 -67 c2 -7 -3 -12 -12 -12 -9 0 -16 7 -16
16 0 17 22 14 28 -4z m-1343 -22 c22 -43 20 -70 -8 -70 -26 0 -67 26 -67 42 0
14 40 58 51 58 5 0 15 -13 24 -30z m415 -66 c0 -31 -23 -28 -28 4 -2 15 2 22
12 22 11 0 16 -9 16 -26z m-283 -19 c7 -21 -21 -45 -44 -39 -25 7 -29 24 -11
42 15 15 50 12 55 -3z m-47 -95 c0 -27 -32 -71 -47 -66 -8 3 -26 9 -39 12 -13
3 -24 12 -24 19 0 20 27 37 49 30 10 -3 22 -1 26 5 8 13 35 13 35 0z m38 -165
c2 -23 -5 -38 -32 -64 -21 -20 -41 -31 -50 -28 -13 5 -12 14 6 67 18 56 22 61
47 58 21 -2 27 -9 29 -33z m-63 -259 c5 -31 2 -52 -9 -75 -23 -43 -40 -40 -32
4 5 27 3 37 -9 41 -21 9 -19 40 5 64 27 27 37 19 45 -34z m1325 -44 c0 -9 -7
-11 -22 -6 -31 9 -31 9 -17 35 11 22 12 22 25 4 8 -10 14 -25 14 -33z m-1389
-165 c-1 -12 -15 -9 -19 4 -3 6 1 10 8 8 6 -3 11 -8 11 -12z m739 -33 c0 -16
-16 -19 -25 -4 -8 13 4 32 16 25 5 -4 9 -13 9 -21z m25 -114 c0 -7 -6 -15 -12
-17 -8 -3 -13 4 -13 17 0 13 5 20 13 18 6 -3 12 -11 12 -18z m131 -427 c-11
-11 -19 6 -11 24 8 17 8 17 12 0 3 -10 2 -21 -1 -24z m114 -108 c0 -19 7 -26
28 -31 57 -14 70 -46 23 -62 -35 -12 -41 -8 -75 50 -29 50 -28 68 5 68 14 0
19 -7 19 -25z m300 6 c0 -10 3 -33 6 -50 7 -33 -6 -40 -36 -21 -12 7 -12 12
-2 22 6 6 12 25 12 40 0 15 5 28 10 28 6 0 10 -8 10 -19z m-350 -106 c0 -8 -9
-15 -20 -15 -20 0 -26 11 -13 23 12 13 33 7 33 -8z m327 -76 c5 -5 8 -21 5
-35 -3 -18 -11 -24 -32 -24 -32 0 -41 15 -29 48 9 23 38 29 56 11z m-117 -17
c0 -10 -11 -29 -24 -41 -14 -13 -26 -35 -28 -50 -2 -21 -9 -27 -37 -29 -24 -3
-32 0 -28 10 2 7 -4 22 -14 33 -23 26 -37 85 -20 85 7 0 25 -7 42 -15 28 -15
31 -15 56 5 32 25 53 26 53 2z m183 -111 c29 -27 35 -62 13 -80 -11 -9 -17 -8
-28 8 -7 10 -27 21 -43 23 -26 3 -30 8 -33 38 -3 24 2 38 14 47 19 14 24 11
77 -36z m-129 -45 c10 -19 16 -42 12 -51 -5 -14 -9 -14 -35 -1 -31 17 -46 53
-29 73 17 21 32 15 52 -21z m-59 -101 c42 -42 48 -85 12 -85 -16 0 -31 14 -54
53 -32 53 -32 55 4 66 1 1 18 -15 38 -34z m185 -62 c0 -7 -7 -16 -15 -19 -18
-7 -85 4 -85 14 0 4 15 17 32 29 30 21 33 21 50 6 10 -9 18 -22 18 -30z
m-1270 -198 c0 -29 -34 -36 -44 -9 -10 27 -7 34 19 34 20 0 25 -5 25 -25z
m-60 -95 c0 -5 -5 -10 -11 -10 -5 0 -7 5 -4 10 3 6 8 10 11 10 2 0 4 -4 4 -10z
m-82 -28 c2 -14 -2 -22 -11 -22 -20 0 -26 9 -20 31 7 25 27 19 31 -9z"/>
<path d="M3051 4000 c-123 -5 -123 -6 -151 -37 l-28 -32 3 -133 c1 -73 6 -196
10 -273 5 -90 3 -161 -4 -199 -9 -48 -8 -62 4 -79 19 -27 19 -61 1 -90 -9 -14
-17 -72 -21 -157 -9 -151 -9 -142 -8 -550 1 -162 1 -385 1 -495 0 -505 10
-900 25 -940 l14 -40 184 -7 c101 -4 261 -11 354 -16 130 -6 192 -5 265 5 52
8 138 18 190 23 52 5 111 14 130 19 19 6 94 22 165 36 72 14 145 30 163 36 45
15 93 58 156 143 67 89 98 150 136 268 29 88 30 96 20 173 -6 44 -15 151 -19
237 -8 131 -13 163 -30 190 -41 68 -94 106 -226 166 -75 34 -131 65 -133 74
-2 8 36 55 85 104 48 49 103 111 121 138 50 76 89 214 157 551 20 100 18 339
-2 380 -9 16 -22 61 -29 99 -21 106 -77 192 -177 271 -87 69 -166 103 -297
125 -70 13 -841 20 -1059 10z m75 -142 c10 -16 -2 -19 -30 -8 -15 5 -25 14
-22 19 7 11 44 3 52 -11z m124 -37 c0 -5 -7 -17 -16 -26 -22 -21 -44 -4 -24
20 14 16 40 20 40 6z m820 -33 c0 -13 -36 -27 -49 -19 -10 7 -9 14 5 36 17 25
19 26 31 9 7 -10 13 -21 13 -26z m-782 -150 c18 -18 15 -36 -10 -49 -18 -10
-24 -8 -35 7 -21 29 -16 54 10 54 13 0 28 -5 35 -12z m1023 -21 c-1 -12 -15
-9 -19 4 -3 6 1 10 8 8 6 -3 11 -8 11 -12z m-591 -27 c120 -13 153 -23 216
-71 70 -52 121 -124 149 -214 34 -107 39 -159 21 -234 -8 -35 -12 -77 -9 -93
8 -40 -14 -174 -37 -223 -62 -134 -78 -160 -118 -196 -25 -21 -58 -41 -76 -43
-189 -28 -385 -41 -404 -28 -10 7 -13 116 -14 539 0 292 3 536 6 542 18 29
114 37 266 21z m540 -81 c0 -23 -28 -25 -36 -4 -4 8 -3 22 0 31 5 13 9 14 21
4 8 -7 15 -21 15 -31z m94 4 c3 -16 -1 -50 -8 -78 -11 -42 -17 -50 -36 -50
-13 0 -28 8 -33 17 -9 14 -6 21 17 39 23 18 27 28 23 55 -5 30 1 40 25 43 3 1
9 -11 12 -26z m82 -47 c15 -12 17 -17 7 -27 -7 -7 -13 -25 -13 -40 0 -34 -36
-75 -72 -83 -35 -8 -36 6 -2 29 14 9 23 22 20 30 -6 16 22 105 33 105 4 0 16
-6 27 -14z m-140 -184 c6 -4 16 -17 23 -30 10 -18 9 -23 -4 -28 -27 -11 -45 4
-45 36 0 30 6 36 26 22z m164 -11 c0 -11 -5 -23 -11 -27 -14 -8 -29 14 -22 33
8 20 33 16 33 -6z m-1258 -58 c21 -19 24 -43 5 -43 -19 0 -37 21 -37 42 0 22
8 23 32 1z m1214 -5 c41 -32 45 -40 27 -60 -16 -18 -81 -43 -89 -35 -7 7 19
117 27 117 3 0 19 -10 35 -22z m-121 -104 c19 -39 35 -52 70 -58 36 -7 44 -23
23 -44 -30 -30 -99 4 -128 64 -11 22 -20 46 -20 53 0 20 43 8 55 -15z m-1125
-68 c0 -15 -18 -31 -26 -23 -7 7 7 37 17 37 5 0 9 -6 9 -14z m1099 -85 c12 -8
12 -12 2 -25 -16 -19 -35 -20 -50 -3 -20 25 18 47 48 28z m99 -28 c-4 -22 -38
-30 -38 -10 0 14 13 24 33 26 5 1 7 -7 5 -16z m-1158 -22 c0 -5 3 -16 6 -25 4
-12 0 -16 -16 -16 -16 0 -20 4 -16 16 3 9 6 20 6 25 0 5 5 9 10 9 6 0 10 -4
10 -9z m1083 -93 c18 -28 -7 -68 -42 -68 -37 0 -48 16 -27 39 9 10 16 25 16
35 0 22 39 18 53 -6z m-1008 -106 c0 -8 -8 -20 -17 -26 -25 -16 -48 11 -55 65
l-6 44 39 -34 c21 -19 39 -41 39 -49z m-125 -37 c0 -6 17 -21 39 -33 35 -20
38 -25 37 -63 -1 -34 4 -44 27 -61 15 -11 27 -29 27 -40 0 -18 -4 -20 -37 -15
-21 4 -45 15 -53 24 -8 10 -22 17 -31 15 -13 -2 -19 15 -33 87 -10 50 -14 100
-11 112 7 22 8 22 21 4 8 -10 14 -24 14 -30z m1058 -38 c2 -11 -3 -17 -17 -17
-25 0 -38 19 -20 31 19 12 33 6 37 -14z m-88 -217 c0 -23 -4 -30 -20 -30 -14
0 -20 7 -20 23 0 27 7 37 27 37 8 0 13 -12 13 -30z m-1060 -31 c0 -10 -4 -20
-10 -24 -13 -8 -43 42 -36 61 6 15 8 15 26 -1 11 -10 20 -26 20 -36z m146 -11
c8 -16 23 -28 34 -28 11 0 35 -8 55 -17 39 -19 49 -59 18 -69 -10 -3 -35 -13
-56 -22 -29 -12 -40 -13 -49 -4 -7 7 -15 12 -19 12 -8 0 -29 -81 -29 -114 0
-30 -16 -33 -47 -7 -21 17 -21 22 -13 112 7 78 12 96 29 108 13 8 21 24 21 41
0 50 27 45 56 -12z m209 11 c6 -6 3 -15 -8 -26 -23 -23 -71 -7 -75 26 -4 22
-2 23 35 16 21 -3 42 -11 48 -16z m210 -44 c0 -5 -10 -11 -22 -13 -16 -2 -23
2 -23 13 0 11 7 15 23 13 12 -2 22 -7 22 -13z m-114 -26 c20 -10 20 -11 -5
-34 -14 -13 -26 -33 -26 -43 0 -24 -65 -70 -105 -74 -25 -2 -31 1 -33 20 -2
14 3 24 15 29 10 3 41 30 68 60 55 57 57 58 86 42z m89 -109 c0 -5 -7 -10 -15
-10 -8 0 -15 5 -15 10 0 6 7 10 15 10 8 0 15 -4 15 -10z m-320 -67 c-1 -35
-52 -43 -58 -10 -3 13 3 17 27 17 17 0 31 -3 31 -7z m469 -84 c35 -10 72 -19
84 -19 60 0 176 -111 220 -211 22 -50 24 -65 19 -164 -5 -141 -21 -169 -123
-214 -38 -17 -75 -31 -82 -31 -6 0 -32 -10 -57 -21 -39 -18 -66 -21 -203 -23
-143 -1 -160 1 -175 18 -15 16 -17 52 -17 330 1 330 4 351 47 358 55 9 227 -5
287 -23z m-612 -27 c16 -12 24 -32 29 -73 6 -53 5 -56 -26 -82 -17 -15 -35
-27 -38 -27 -4 0 -8 45 -8 100 -2 106 2 114 43 82z m88 -262 c4 -16 11 -32 16
-35 17 -11 9 -32 -17 -44 -14 -6 -30 -9 -35 -6 -12 8 -12 72 1 96 15 27 27 24
35 -11z m-119 -125 c13 -27 9 -35 -17 -35 -23 0 -32 15 -24 40 9 27 28 25 41
-5z m1354 0 c0 -8 -7 -15 -15 -15 -8 0 -15 7 -15 15 0 8 7 15 15 15 8 0 15 -7
15 -15z m-1300 -116 c0 -21 -21 -49 -38 -49 -20 0 -46 36 -37 50 8 14 75 13
75 -1z m60 -35 c0 -17 -6 -28 -19 -31 -11 -3 -22 -12 -25 -20 -3 -8 -11 -11
-17 -7 -9 5 -8 10 2 18 8 6 22 23 32 39 22 34 27 34 27 1z m1133 -96 c20 -15
13 -58 -9 -58 -13 0 -34 38 -34 61 0 13 23 11 43 -3z"/>
</g>
</svg>
