<?xml version="1.0" standalone="no"?>
<!DOCTYPE svg PUBLIC "-//W3C//DTD SVG 20010904//EN"
 "http://www.w3.org/TR/2001/REC-SVG-20010904/DTD/svg10.dtd">
<svg version="1.0" xmlns="http://www.w3.org/2000/svg"
 width="421.000000pt" height="421.000000pt" viewBox="0 0 421.000000 421.000000"
 preserveAspectRatio="xMidYMid meet">
<metadata>
Created by potrace 1.11, written by Peter Selinger 2001-2013
</metadata>
<g transform="translate(0.000000,421.000000) scale(0.100000,-0.100000)"
fill="#000000" stroke="none">
<path d="M1847 3625 c-10 -15 -32 -27 -55 -31 -20 -3 -46 -15 -58 -26 -11 -10
-41 -29 -65 -41 -35 -17 -50 -34 -73 -80 -16 -31 -28 -68 -28 -82 0 -14 -4
-28 -9 -31 -13 -7 -49 -94 -49 -116 0 -10 -7 -30 -16 -43 -9 -14 -14 -35 -11
-47 3 -11 -1 -34 -9 -49 -8 -16 -14 -56 -14 -92 0 -60 -5 -77 -50 -182 -37
-85 -70 -254 -70 -354 0 -49 11 -32 17 26 7 79 58 272 93 357 44 105 111 192
180 234 53 33 57 34 136 28 44 -3 94 -10 110 -16 81 -27 330 -60 458 -60 127
0 268 -17 346 -42 49 -15 196 -114 220 -148 11 -16 33 -55 47 -87 25 -52 28
-74 34 -218 5 -125 12 -181 32 -258 l27 -98 -25 -102 c-14 -56 -28 -133 -31
-172 -7 -74 1 -91 48 -108 22 -8 30 6 62 116 16 58 33 95 48 107 28 23 48 25
48 5 0 -8 6 -12 13 -9 8 3 19 36 26 77 7 40 26 140 43 222 47 240 40 390 -24
495 -12 19 -25 58 -29 85 -22 137 -27 157 -46 183 -21 28 -183 171 -195 172
-4 0 -29 13 -56 29 -27 16 -59 32 -72 36 -20 6 -50 28 -85 62 -32 30 -207 113
-241 113 -23 0 -57 13 -101 40 -58 35 -74 40 -127 40 -46 0 -75 7 -128 32 -65
29 -70 30 -109 18 -38 -13 -44 -12 -95 13 -67 33 -94 34 -117 2z"/>
<path d="M1479 2706 c-26 -15 -50 -45 -62 -80 -7 -17 -5 -17 28 3 20 12 45 21
56 21 23 0 106 -36 129 -55 8 -7 41 -27 73 -44 51 -26 61 -29 73 -16 24 23 16
39 -41 80 -122 88 -207 118 -256 91z"/>
<path d="M2112 2422 c-10 -28 34 -55 95 -59 211 -13 312 -26 380 -50 74 -25
103 -25 103 0 0 40 -110 92 -220 106 -137 17 -352 19 -358 3z"/>
<path d="M1413 2360 c-36 -15 -27 -30 18 -30 35 0 40 -2 33 -17 -4 -10 -9 -34
-12 -54 -3 -32 1 -40 34 -67 48 -40 85 -48 125 -28 40 20 43 20 35 1 -13 -35
23 -5 45 38 l15 27 32 -42 c18 -23 32 -37 32 -31 0 6 -9 22 -20 36 -11 14 -20
28 -20 32 0 17 -85 94 -127 115 -52 26 -152 37 -190 20z m135 -36 c26 -7 29
-29 6 -38 -19 -7 -44 10 -44 30 0 16 5 16 38 8z"/>
<path d="M1280 2255 c0 -28 16 -50 24 -36 4 6 0 21 -8 33 -15 21 -16 21 -16 3z"/>
<path d="M2320 2204 c-64 -17 -122 -67 -138 -120 -12 -40 -7 -43 20 -9 24 31
34 31 42 3 11 -41 22 -48 84 -58 49 -8 69 -7 98 5 20 8 40 12 46 9 19 -12 48
29 54 78 5 38 10 48 23 44 113 -34 175 -32 98 2 -114 51 -244 70 -327 46z m50
-33 c0 -12 -30 -22 -43 -14 -7 4 -3 9 9 14 26 10 34 10 34 0z"/>
<path d="M3197 1889 c-15 -12 -32 -29 -37 -39 -7 -14 3 -11 45 13 30 18 54 35
55 40 0 14 -35 6 -63 -14z"/>
<path d="M1695 1780 c11 -36 56 -73 107 -88 86 -25 188 -14 202 23 3 8 -10 8
-44 1 -77 -15 -205 18 -249 64 l-24 25 8 -25z"/>
<path d="M2978 1533 c-8 -10 -18 -26 -21 -35 -4 -10 -11 -18 -16 -18 -5 0 -13
-9 -16 -20 -4 -11 -10 -18 -15 -15 -5 3 -11 -1 -13 -7 -3 -7 -6 -4 -7 7 -1 18
-3 17 -12 -5 -6 -14 -10 -29 -9 -33 1 -5 -3 -6 -9 -2 -5 3 -13 -1 -16 -9 -3
-9 -12 -16 -18 -16 -16 0 -82 -59 -79 -71 2 -4 -5 -5 -14 -2 -13 5 -15 2 -10
-11 4 -11 3 -15 -4 -11 -5 4 -36 -6 -67 -21 -31 -15 -77 -38 -102 -50 -25 -12
-63 -27 -85 -33 -22 -7 -49 -16 -60 -21 -11 -5 -51 -23 -89 -40 -38 -16 -78
-30 -90 -30 -18 0 -19 -2 -6 -11 12 -8 10 -9 -8 -4 -16 5 -28 1 -40 -13 -20
-23 -145 -39 -208 -27 -45 8 -37 16 41 43 33 12 103 37 155 57 52 19 101 38
109 40 8 3 12 7 10 10 -5 4 -527 -170 -537 -180 -4 -3 0 -10 8 -15 9 -5 28 -1
53 12 35 17 50 19 121 12 163 -15 269 0 466 66 193 64 282 107 385 185 68 52
145 128 176 172 8 12 28 27 43 33 19 7 26 15 22 26 -3 9 -6 24 -6 35 0 24 -12
24 -32 2z"/>
<path d="M1621 1536 c2 -2 82 -18 177 -35 95 -17 198 -40 228 -50 30 -11 54
-16 54 -12 0 17 -155 65 -265 82 -111 17 -204 25 -194 15z"/>
<path d="M1446 1415 c-9 -26 -7 -32 5 -12 6 10 9 21 6 23 -2 3 -7 -2 -11 -11z"/>
<path d="M1429 1340 c-4 -46 1 -65 26 -86 14 -12 25 -26 25 -31 0 -13 44 -53
58 -53 10 0 10 5 2 20 -6 12 -16 18 -23 14 -7 -4 -9 -3 -4 1 4 5 0 17 -10 27
-9 10 -12 18 -8 18 4 0 -1 8 -11 18 -18 16 -36 47 -47 82 -3 9 -6 5 -8 -10z"/>
<path d="M1946 915 c-3 -8 -1 -15 4 -15 6 0 10 7 10 15 0 8 -2 15 -4 15 -2 0
-6 -7 -10 -15z"/>
<path d="M1925 870 c-3 -11 -10 -20 -15 -20 -4 0 -10 -7 -14 -15 -4 -12 -2
-13 13 -3 24 15 43 46 32 53 -5 3 -12 -4 -16 -15z"/>
<path d="M1821 776 c-19 -7 -36 -17 -39 -24 -2 -7 11 -5 37 5 23 9 41 20 41
25 0 4 -1 8 -2 7 -2 0 -18 -6 -37 -13z"/>
<path d="M1900 670 c0 -5 5 -10 10 -10 6 0 10 5 10 10 0 6 -4 10 -10 10 -5 0
-10 -4 -10 -10z"/>
<path d="M1872 605 c-15 -33 -15 -42 0 -27 11 11 22 52 15 52 -2 0 -9 -11 -15
-25z"/>
<path d="M1773 540 c-24 -11 -43 -21 -43 -24 0 -9 69 12 91 28 32 22 5 20 -48
-4z"/>
<path d="M1860 418 c-15 -21 -17 -28 -6 -19 16 13 41 51 33 51 -2 0 -14 -15
-27 -32z"/>
<path d="M1146 346 c10 -8 21 -12 24 -10 5 6 -21 24 -34 24 -6 0 -1 -6 10 -14z"/>
<path d="M1757 344 c-16 -9 -26 -18 -23 -21 3 -3 20 4 38 16 38 24 27 28 -15
5z"/>
<path d="M1230 311 c0 -12 88 -31 144 -31 68 0 196 12 196 19 0 3 -64 6 -142
6 -79 0 -155 3 -170 8 -16 4 -28 3 -28 -2z"/>
<path d="M1640 310 l-45 -7 40 -1 c22 0 51 4 65 8 32 10 5 10 -60 0z"/>
</g>
</svg>
